# xmcd
#
# Track frame offsets:
#	150
#	15508
#	35589
#	51986
#	69071
#	89139
#
# Disc length: 1372 seconds
#
# Revision: 0
# Processed by: cddbd v1.4PL0 Copyright (c) Steve Scherf et al.
# Submitted via: dBpowerAMP V4.0
#
DISCID=48055a06
DTITLE=Crystal Yoakum - Demonstration
DYEAR=1900
DGENRE=Country
TTITLE0=Heart Wide Open
TTITLE1=Can't Count On You
TTITLE2=Rainbows Move
TTITLE3=Girl You Never Knew
TTITLE4=Ever After
TTITLE5=Best Laid Plan
EXTD=
EXTT0=
EXTT1=
EXTT2=
EXTT3=
EXTT4=
EXTT5=
PLAYORDER=
